<svg width="652" height="471" xmlns="http://www.w3.org/2000/svg" xml:space="preserve" version="1.1">

 <g>
  <title>Layer 1</title>
  <g id="svg_19">
   <path id="svg_9" fill="#0091E2" d="m644.18273,179.20853c-1.80494,-1.50411 -18.04936,-13.83785 -52.9448,-13.83785c-9.02468,0 -18.35019,0.90247 -27.37487,2.40658c-6.6181,-46.02588 -44.82259,-68.28676 -46.3267,-69.49005l-9.3255,-5.41481l-6.01645,8.72386c-7.52057,11.73209 -13.2362,24.96829 -16.54525,38.50531c-6.31728,26.17158 -2.40658,50.83904 10.82962,71.89663c-15.9436,9.02468 -41.81436,11.13044 -47.22917,11.43126l-427.16827,0c-11.13044,0 -20.15512,9.02468 -20.15512,20.15512c-0.60165,37.30202 5.71563,74.60404 18.65101,109.80029c14.74031,38.50531 36.70037,67.08347 64.97771,84.53119c31.88721,19.55348 83.92954,30.68392 142.58997,30.68392c26.4724,0 52.9448,-2.40658 79.11638,-7.21975c36.39955,-6.6181 71.29499,-19.25265 103.48302,-37.60284c26.4724,-15.34196 50.2374,-34.89544 70.39252,-57.75796c33.99297,-38.20449 54.14809,-80.92131 68.8884,-118.82498c2.10576,0 3.9107,0 6.01645,0c37.0012,0 59.86372,-14.74031 72.49828,-27.37487c8.42304,-7.82139 14.74031,-17.44772 19.25265,-28.27734l2.7074,-7.82139l-6.31728,-4.51234z" class="st0"/>
   <path id="svg_10" fill="#0091E2" d="m61.78993,211.09574l57.15632,0c2.7074,0 5.11399,-2.10576 5.11399,-5.11399l0,0l0,-51.13986c0,-2.7074 -2.10576,-5.11399 -5.11399,-5.11399c0,0 0,0 0,0l-57.15632,0c-2.7074,0 -5.11399,2.10576 -5.11399,5.11399c0,0 0,0 0,0l0,51.13986c0.30082,3.00823 2.40658,5.11399 5.11399,5.11399l0,0" class="st0"/>
   <path id="svg_11" fill="#0091E2" d="m140.60548,211.09574l57.15632,0c2.7074,0 5.11399,-2.10576 5.11399,-5.11399l0,0l0,-51.13986c0,-2.7074 -2.10576,-5.11399 -5.11399,-5.11399c0,0 0,0 0,0l-57.15632,0c-2.7074,0 -5.11399,2.10576 -5.11399,5.11399l0,51.13986c0.30082,3.00823 2.40658,5.11399 5.11399,5.11399" class="st0"/>
   <path id="svg_12" fill="#0091E2" d="m220.92515,211.09574l57.15632,0c2.7074,0 5.11399,-2.10576 5.11399,-5.11399l0,0l0,-51.13986c0,-2.7074 -2.10576,-5.11399 -5.11399,-5.11399c0,0 0,0 0,0l-57.15632,0c-2.7074,0 -5.11399,2.10576 -5.11399,5.11399c0,0 0,0 0,0l0,51.13986c0,3.00823 2.10576,5.11399 5.11399,5.11399l0,0" class="st0"/>
   <path id="svg_13" fill="#0091E2" d="m300.04153,211.09574l57.15632,0c2.7074,0 5.11399,-2.10576 5.11399,-5.11399l0,-51.13986c0,-2.7074 -2.10576,-5.11399 -5.11399,-5.11399l0,0l-57.15632,0c-2.7074,0 -5.11399,2.10576 -5.11399,5.11399c0,0 0,0 0,0l0,51.13986c0,3.00823 2.40658,5.11399 5.11399,5.11399l0,0" class="st0"/>
   <path id="svg_14" fill="#0091E2" d="m140.60548,137.99582l57.15632,0c2.7074,0 5.11399,-2.40658 5.11399,-5.11399l0,-51.13986c0,-2.7074 -2.10576,-5.11399 -5.11399,-5.11399l0,0l-57.15632,0c-2.7074,0 -5.11399,2.10576 -5.11399,5.11399l0,51.13986c0.30082,2.7074 2.40658,5.11399 5.11399,5.11399" class="st0"/>
   <path id="svg_15" fill="#0091E2" d="m220.92515,137.99582l57.15632,0c2.7074,0 5.11399,-2.40658 5.11399,-5.11399l0,-51.13986c0,-2.7074 -2.10576,-5.11399 -5.11399,-5.11399l0,0l-57.15632,0c-2.7074,0 -5.11399,2.10576 -5.11399,5.11399l0,0l0,51.13986c0,2.7074 2.10576,5.11399 5.11399,5.11399" class="st0"/>
   <path id="svg_16" fill="#0091E2" d="m300.04153,137.99582l57.15632,0c2.7074,0 5.11399,-2.40658 5.11399,-5.11399l0,-51.13986c0,-2.7074 -2.40658,-5.11399 -5.11399,-5.11399l-57.15632,0c-2.7074,0 -5.11399,2.10576 -5.11399,5.11399l0,0l0,51.13986c0,2.7074 2.40658,5.11399 5.11399,5.11399" class="st0"/>
   <path id="svg_17" fill="#0091E2" d="m300.04153,64.59507l57.15632,0c2.7074,0 5.11399,-2.10576 5.11399,-5.11399l0,-51.13986c0,-2.7074 -2.40658,-5.11399 -5.11399,-5.11399l-57.15632,0c-2.7074,0 -5.11399,2.10576 -5.11399,5.11399l0,0l0,51.13986c0,2.7074 2.40658,5.11399 5.11399,5.11399" class="st0"/>
   <path id="svg_18" fill="#0091E2" d="m379.75955,211.09574l57.15632,0c2.7074,0 5.11399,-2.10576 5.11399,-5.11399l0,-51.13986c0,-2.7074 -2.10576,-5.11399 -5.11399,-5.11399l0,0l-57.15632,0c-2.7074,0 -5.11399,2.10576 -5.11399,5.11399c0,0 0,0 0,0l0,51.13986c0.30082,3.00823 2.40658,5.11399 5.11399,5.11399" class="st0"/>
  </g>
 </g>
</svg>